PathFileType	4	(X/Y/Z)	C:/Users/beibeiliu/ov580/test_trc\sequence.8_training_dense_right.trc
DataRate	CameraRate	NumFrames	NumMarkers	Units	OrigDataRate	OrigDataStartFrame	OrigNumFrames
120	120	20	19	mm	120	28	83
Frame#	Time	ThumbCMC			ThumbMCP			ThumbIP			ThumbTip			IndexMCP			IndexPIP			IndexTip			MiddleMCP			MiddlePIP			MiddleTip			RingMCP			RingPIP			RingTip			PinkyMCP			PinkyPIP			PinkyTip			BackHand1			BackHand2			BackHand3	
		X0	Y0	Z0	X1	Y1	Z1	X2	Y2	Z2	X3	Y3	Z3	X4	Y4	Z4	X5	Y5	Z5	X6	Y6	Z6	X7	Y7	Z7	X8	Y8	Z8	X9	Y9	Z9	X10	Y10	Z10	X11	Y11	Z11	X12	Y12	Z12	X13	Y13	Z13	X14	Y14	Z14	X15	Y15	Z15	X16	Y16	Z16	X17	Y17	Z17	X18	Y18	Z18	
27	0.225	105.185	34.2565	33.0205	109.624	44.258	11.8535	110.087	48.6968	-14.2694	117.194	52.1543	-27.6555	58.889	53.417	-18.3643	52.7179	64.0655	-34.43	45.1926	77.2862	-55.009	36.9459	53.9105	-8.90481	21.9453	66.3937	-23.2086	9.19075	81.1807	-42.3621	24.0921	54.2957	12.5484	12.3147	68.1456	-3.41811	-4.65544	80.269	-11.9476	16.4547	57.0796	36.9805	5.05391	67.9889	35.4906	-10.8109	79.182	24.0659	49.0283	28.5678	36.3535	67.1798	14.3575	56.5099	76.0539	21.8869	28.7124	
28	0.233333	100.681	30.657	36.7362	109.036	30.9098	12.6991	113.558	29.3447	-5.81843	122.167	26.747	-23.7311	67.9348	26.5247	-24.4426	63.4256	30.2334	-42.8179	57.2019	37.7082	-69.0186	42.7325	31.3885	-18.3071	34.5789	36.4746	-37.7585	21.6112	43.6946	-61.5442	27.0985	40.0316	-3.79737	16.4426	45.8965	-20.4037	7.57384	53.2983	-37.1402	17.0194	50.6057	18.6467	5.08791	58.037	7.42194	-8.02825	63.8122	-1.4965	49.2361	24.9674	36.8838	58.8243	21.4839	62.2866	76.25	16.8718	33.4431	
29	0.241667	102.445	31.5904	42.6718	114.503	27.2378	20.2642	123.323	16.994	-1.32754	126.869	10.6721	-19.6715	74.2114	7.50192	-20.3346	73.2241	4.29484	-38.5189	70.2984	3.23108	-61.8729	50.4363	10.3262	-18.2386	43.436	9.38676	-40.5967	38.2911	7.26661	-67.1571	35.2447	22.5869	-5.39527	27.119	20.2702	-28.9068	20.9862	20.6961	-49.2971	23.9338	36.3806	9.79035	10.6099	38.2489	-6.24307	-0.635563	38.2802	-17.3425	51.0705	21.8756	35.6616	57.3624	25.7419	62.9473	81.6252	16.4537	42.1546	
30	0.25	110.821	32.8331	42.2801	124.323	25.161	22.7425	131.716	16.2429	5.412	137.604	8.32994	-10.4184	94.1844	-4.98744	-11.0633	87.9155	-13.0149	-32.1381	88.0931	-20.1733	-51.7813	67.3168	-5.40745	-12.6315	62.4216	-14.7367	-35.2383	56.6413	-21.9907	-58.3058	48.6057	3.46953	-5.58361	45.4246	-4.32236	-26.1041	36.1009	-8.43657	-48.5544	36.2851	18.028	5.63582	27.8471	12.2105	-10.9518	17.6347	6.5326	-22.467	59.8035	17.8264	37.3563	65.4708	26.7529	59.3834	89.2775	16.2453	46.2997	
31	0.258333	119.585	39.5746	43.278	136.764	29.216	22.4369	145.671	19.706	7.75325	155.489	10.2112	-9.07397	111.056	-9.82475	-1.89929	113.668	-23.3617	-23.6763	112.634	-34.0169	-43.5495	89.607	-18.4916	-6.18232	87.619	-30.2871	-25.1118	88.9119	-44.928	-48.879	71.356	-11.5402	-2.40615	67.7075	-23.2523	-20.7936	68.3574	-32.0741	-37.9536	52.039	2.34758	8.11276	48.8432	-8.4802	-6.5778	43.8042	-21.4225	-20.8267	76.1979	12.0037	37.4356	78.5133	25.538	61.7691	99.3302	17.8878	47.9	
32	0.266667	127.549	50.3713	43.0629	147.672	41.5819	21.6111	160.712	31.7783	6.17756	168.685	23.8653	-10.0637	134.328	-5.22677	1.27089	143.243	-19.6718	-20.9876	145.254	-29.3989	-37.1048	116.085	-16.8885	-1.24143	122.292	-33.1188	-21.225	121.388	-50.5477	-40.0799	95.7054	-17.3053	1.1208	98.9252	-31.6947	-15.8653	98.4598	-45.4769	-34.8912	75.5974	-8.98762	9.25804	70.8626	-23.1275	-3.72797	73.2563	-39.1813	-19.9747	89.6124	7.62719	38.8867	84.8496	22.4666	56.8344	112.991	19.2025	45.3605	
33	0.275	126.588	58.9742	38.4802	146.628	62.5555	21.4231	162.424	57.0736	4.70649	177.461	50.7713	-11.5822	158.969	10.3341	-2.70471	166.74	-0.131242	-18.6446	172.736	-12.268	-36.5241	139.019	-8.59292	-1.68812	152.838	-21.8944	-18.8365	162.142	-36.2324	-35.0435	122.806	-17.8314	-1.42034	129.908	-30.1152	-15.1445	133.965	-41.7577	-30.5856	101.093	-16.497	6.66127	103.384	-29.5136	-4.14952	108.77	-47.3997	-16.8641	109.175	7.44044	37.2986	100.789	20.3184	53.4667	125.829	31.9636	44.8403	
34	0.283333	122.555	63.464	35.5335	140.432	76.2549	18.0879	152.112	76.0647	4.02638	170.06	81.5978	-12.4015	167.89	31.5774	-2.93716	186.593	30.0308	-21.2522	196.422	23.5679	-35.387	167.492	12.7318	-4.36657	179.734	3.86565	-17.8818	197.138	-8.61057	-35.5242	150.726	-2.76898	-0.936806	161.063	-12.865	-14.3639	177.22	-21.619	-31.8381	130.359	-13.0036	5.23664	138.173	-25.0304	-6.15779	151.031	-34.8371	-16.381	123.976	11.2172	34.8883	111.449	20.8342	53.7231	133.697	38.4594	41.5803	
35	0.291667	113.554	65.0305	38.1589	128.16	84.3193	17.9129	138.585	94.0418	3.74385	149.856	98.6534	-11.4067	173.053	60.9411	-3.34582	185.009	58.7839	-18.3227	200.357	64.238	-33.2834	179.324	35.7841	-3.89542	195.09	34.1835	-17.4452	213.854	28.7828	-31.6726	167.299	13.7134	0.223849	186.295	13.9682	-15.7342	201.913	7.15028	-30.6351	156.542	-1.04234	4.46028	164.839	-5.76481	-4.87017	181.251	-13.6675	-16.9306	141.302	22.0866	35.5994	122.765	21.4484	55.5591	136.79	44.3989	43.4339	
36	0.3	109.356	65.3701	36.5661	109.421	83.7012	19.8472	120.283	101.798	2.52865	123.721	112.472	-10.2059	162.727	79.5161	-3.08395	172.859	90.7669	-17.7298	186.283	95.8818	-32.9602	175.193	65.2262	-4.97153	190.496	67.6869	-18.2166	211.906	76.6748	-32.5639	173.968	39.0861	-1.74886	192.495	43.4613	-18.3181	207.593	46.8321	-32.2263	166.627	16.1239	4.22781	185.45	14.7997	-8.75768	196.604	17.5926	-14.5412	147.102	33.2831	32.0762	135.576	29.482	50.9936	133.539	53.1435	44.2015	
37	0.308333	99.5161	58.8726	37.2534	92.0532	80.6593	20.2589	95.017	101.113	2.40248	94.9328	112.418	-11.2568	141.476	93.6418	-6.01757	150.309	106.354	-20.8746	155.611	123.714	-36.2172	162.137	84.1484	-8.14658	175.47	93.5486	-22.5024	191.132	107.93	-37.0451	169.912	61.0289	-4.93591	184.475	72.2329	-22.3197	194.584	81.0676	-34.101	173.336	36.6733	-0.885637	187.996	41.6847	-12.4505	201.49	49.4033	-20.1441	149.424	45.7667	31.0126	142.682	36.5943	48.8755	130.936	62.9545	37.9128	
38	0.316667	91.8008	54.857	36.6459	78.3587	70.9334	18.6413	73.2002	88.8435	0.397223	66.9048	96.7586	-12.5938	118.177	99.7163	-15.9067	118.505	113.33	-30.9539	121.327	127.302	-48.2228	142.827	92.9161	-15.1808	146.319	108.023	-30.3575	155.864	127.533	-46.2158	156.103	79.7414	-13.8386	165.83	88.196	-25.5878	172.563	102.536	-40.6542	166.317	55.7165	-3.64829	178.042	60.6666	-13.5867	189.149	72.7331	-22.4347	142.245	57.9091	25.4045	137.613	50.6571	45.4223	121.043	69.1101	35.1982	
39	0.325	81.3562	52.8247	34.756	67.9879	63.4688	12.3372	60.4946	72.5032	-5.59932	49.2693	76.4563	-18.1546	94.822	88.741	-21.7041	91.6178	100.498	-40.543	89.3594	113.044	-60.193	119.167	95.1471	-27.4228	124.185	106.847	-45.4338	129.539	122.628	-62.7705	143.027	84.4646	-22.4772	146.085	95.2373	-36.9979	151.284	108.231	-53.0699	154.827	69.1696	-9.96807	167.918	75.7128	-19.9953	178.363	87.6921	-29.1631	135.176	67.6412	19.696	132.801	59.2788	43.9812	107.002	73.3881	29.1543	
40	0.333333	76.6115	53.2638	29.5828	62.4308	52.1874	10.2697	50.0217	56.0816	-8.32114	40.1703	58.9624	-23.491	84.4392	76.5298	-32.4439	83.9894	80.5689	-53.8848	79.3452	87.9612	-77.7374	112.351	82.8933	-36.9943	110.766	88.0812	-56.0753	114.113	101.994	-78.5367	133.96	76.7957	-27.1167	135.896	86.0534	-46.8091	141.815	95.8838	-61.9231	151.709	68.7014	-12.9002	161.353	75.2729	-24.9837	169.674	86.6026	-33.0271	123.954	72.0941	13.2652	123.861	71.1971	39.0117	100.828	72.3298	22.6813	
41	0.341667	74.7003	52.7924	28.2833	58.3402	45.6688	11.3732	48.9681	45.717	-11.3493	34.3013	43.6274	-25.6534	80.1068	60.5221	-39.1235	80.3973	57.9674	-61.0495	76.0743	56.9729	-81.0798	106.26	67.868	-46.9701	110.713	68.2889	-65.4626	113.797	74.8053	-89.6572	130.581	68.6069	-35.2029	131.482	71.1099	-51.1622	139.793	78.292	-73.0431	147.182	63.9624	-13.4439	156.197	69.6391	-31.5443	165.308	77.9713	-36.8165	119.906	73.813	10.7962	117.919	74.7797	31.2165	91.5758	72.4042	17.6917	
42	0.35	74.1523	55.6403	26.2867	59.5999	44.2791	11.2961	46.7628	39.4704	-10.5712	32.9562	35.4517	-23.8162	86.0449	44.7457	-42.9282	85.7728	36.7657	-58.4592	83.2658	28.9883	-78.9689	111.136	51.4246	-47.5103	113.598	46.9128	-62.8288	115.744	45.6928	-88.2965	128.029	54.6202	-34.2659	135.056	53.7744	-53.5517	138.26	53.9615	-70.8208	148.424	56.9265	-12.6241	157.001	57.7939	-25.2034	166.813	65.5958	-39.1669	118.696	71.7177	7.70205	117.149	78.5887	27.1565	91.4417	71.3349	10.2574	
43	0.358333	72.6188	59.4772	26.9548	61.9918	45.6793	12.2347	50.0409	37.7242	-5.33254	38.6267	32.0254	-17.2724	90.2837	34.0692	-33.9751	85.8798	17.1194	-54.2242	85.437	5.79192	-68.2138	112.499	35.7745	-37.3332	112.95	24.2543	-57.7942	117.659	16.4307	-78.1244	132.208	41.1441	-27.8651	138.782	31.9076	-49.0931	147.464	27.5761	-63.4798	152.01	45.6831	-9.34943	158.727	40.9168	-22.7145	170.983	43.4142	-34.8827	121.529	66.6728	7.90335	119.472	79.2662	24.7333	98.0475	71.4325	12.4592	
44	0.366667	79.7146	58.8658	25.7117	63.8572	46.9579	15.7576	51.4001	36.3833	-0.251981	37.8319	30.1556	-11.8836	87.7983	18.4958	-29.8194	84.3048	2.78508	-39.166	86.4601	-16.4617	-53.3043	111.512	16.679	-30.9488	115.3	0.793034	-45.4965	116.676	-13.5339	-63.9134	133.696	19.7356	-22.3661	137.361	7.46262	-38.4546	144.39	-2.71052	-50.8809	147.937	27.1214	-3.55369	160.482	18.6787	-14.5575	167.63	15.1563	-28.9215	127.083	56.5145	5.09632	125.044	74.6263	27.2418	100.281	67.3745	11.5722	
45	0.375	82.9357	61.1343	27.2189	63.1769	49.7967	15.483	48.1245	41.123	1.128	33.7192	36.5952	-8.56843	85.9383	11.7383	-17.2623	75.1528	-8.41646	-24.8018	70.4459	-30.8719	-34.7795	104.207	2.69368	-19.3634	101.671	-14.8389	-28.2217	103.762	-37.2164	-42.7069	124.539	4.80266	-8.34639	126.663	-15.3143	-22.0954	130.025	-28.7713	-33.9796	146.343	8.30065	5.72093	147.489	-2.92171	-1.73099	161.621	-11.8048	-13.5224	126.163	45.5708	10.9219	133.741	67.1702	26.1671	102.478	60.1475	9.11014	
46	0.383333	85.6954	65.5599	27.2298	67.5248	56.2718	18.0897	48.0159	48.0014	2.73991	37.6719	46.1905	-2.48688	73.5635	9.51854	-8.74448	64.9664	-11.1616	-12.9441	53.6761	-33.9838	-18.5151	93.6073	-5.48924	-7.5421	84.3086	-25.0852	-14.6152	79.9343	-46.986	-23.3648	112.187	-7.23477	1.6794	107.442	-28.8432	-6.89914	105.847	-45.6468	-15.9161	135.51	-8.64795	15.1903	135.307	-25.1446	9.129	135.667	-35.2072	-1.54884	128.823	29.5501	14.4441	137.31	52.2574	24.1135	110.343	53.3909	11.5705	
